<?xml version="1.0" encoding="UTF-8"?>
<!DOCTYPE svg PUBLIC "-//W3C//DTD SVG 1.1//EN" "http://www.w3.org/Graphics/SVG/1.1/DTD/svg11.dtd">
<!-- Creator: CorelDRAW -->
<svg xmlns="http://www.w3.org/2000/svg" xml:space="preserve" width="8.5in" height="11in" version="1.1" style="shape-rendering:geometricPrecision; text-rendering:geometricPrecision; image-rendering:optimizeQuality; fill-rule:evenodd; clip-rule:evenodd"
viewBox="0 0 8500 11000"
 xmlns:xlink="http://www.w3.org/1999/xlink"
 xmlns:xodm="http://www.corel.com/coreldraw/odm/2003">
 <defs>
  <style type="text/css">
   <![CDATA[
    .str0 {stroke:#F3F3F3;stroke-width:27.78;stroke-miterlimit:2.61313}
    .fil3 {fill:#001F3F}
    .fil2 {fill:#FC5305}
    .fil4 {fill:#FEFEFE;fill-rule:nonzero}
    .fil1 {fill:#A4D65E;fill-rule:nonzero}
    .fil0 {fill:#FC5305;fill-rule:nonzero}
   ]]>
  </style>
 </defs>
 <g id="Layer_x0020_1">
  <metadata id="CorelCorpID_0Corel-Layer"/>
  <path class="fil0" d="M-8616.52 12201.67l0 -1950.09 753.81 0c327.94,0 573.04,96.97 735.8,291.39 162.75,194.43 244.13,419.06 244.13,674.39 0,291.39 -87.22,528.21 -262.16,710.94 -174.45,182.24 -401.52,273.36 -680.24,273.36l-791.34 0zm599.35 -447.32l155.93 0c98.92,0 182.73,-48.24 250.46,-144.72 68.21,-96.48 102.33,-227.56 102.33,-393.72 0,-142.29 -30.21,-265.08 -90.64,-368.38 -60.42,-102.82 -148.13,-154.46 -262.15,-154.46l-155.93 0 0 1061.29z"/>
  <path class="fil1" d="M-3870.43 12201.67l-107.69 -383 -530.65 0 -115 383 -485.33 0 603.25 -1950.09 632.49 0 613.48 1950.09 -610.56 0zm-529.67 -809.85l311.86 0 -156.42 -564.76 -155.44 564.76z"/>
  <g id="_2751527289488">
   <path class="fil2 str0" d="M2107.13 5314.09l155.93 0c98.92,0 182.72,-48.25 250.46,-144.72 68.22,-96.49 102.33,-227.56 102.33,-393.72 0,-142.29 -30.21,-265.08 -90.64,-368.39 -60.42,-102.81 -148.13,-154.46 -262.15,-154.46l-155.93 0 0 1061.3z"/>
   <polygon class="fil2 str0" points="5328.5,4951.56 5640.36,4951.56 5483.95,4386.8 "/>
   <path class="fil3 str0" d="M2307.63 2834.92l3149.6 0c216.54,0 393.71,177.17 393.71,393.7l0 582.7 -628.18 0 -603.25 1950.09 485.33 0 115 -383 530.65 0 100.45 357.28 0 642.54c0,216.54 -177.17,393.7 -393.71,393.7l-3149.6 0c-216.54,0 -393.71,-177.17 -393.71,-393.7l0 -616.81 385.19 0c278.72,0 505.79,-91.12 680.24,-273.36 174.93,-182.73 262.16,-419.54 262.16,-710.94 0,-255.33 -81.38,-479.97 -244.13,-674.39 -162.75,-194.43 -407.85,-291.39 -735.79,-291.39l-347.67 0 0 -582.7c0,-216.54 177.17,-393.7 393.71,-393.7z"/>
   <path class="fil4 str0" d="M4369.75 4228.22l0 1090.8c-45.55,-115.34 -158.02,-196.94 -289.55,-196.94 -131.53,0 -244,81.61 -289.56,196.94l0 -1090.8 -411.94 0 0 -477.61 1402.98 0 0 477.61 -411.94 0z"/>
   <circle class="fil2 str0" cx="4080.2" cy="5446.42" r="272.69"/>
  </g>
  <g id="_2751527289632">
   <path class="fil0" d="M-5590.82 10719.98l0 1090.8c-45.55,-115.34 -158.02,-196.94 -289.55,-196.94 -131.53,0 -244,81.61 -289.56,196.94l0 -1090.8 -411.94 0 0 -477.61 1402.98 0 0 477.61 -411.94 0z"/>
   <circle class="fil2" cx="-5880.37" cy="11938.18" r="272.69"/>
  </g>
 </g>
</svg>
